<svg version="1.1" viewBox="0.0 0.0 512.0 512.0" fill="none" stroke="none" stroke-linecap="square" stroke-miterlimit="10" xmlns:xlink="http://www.w3.org/1999/xlink" xmlns="http://www.w3.org/2000/svg"><clipPath id="p.0"><path d="m0 0l512.0 0l0 512.0l-512.0 0l0 -512.0z" clip-rule="nonzero"/></clipPath><g clip-path="url(#p.0)"><path fill="#000000" fill-opacity="0.0" d="m0 0l512.0 0l0 512.0l-512.0 0z" fill-rule="evenodd"/><path fill="#000000" fill-opacity="0.0" d="m21.00785 10.496063l469.98425 0l0 335.9685l-469.98425 0z" fill-rule="evenodd"/><path fill="#434343" d="m155.8781 275.16794q-21.875 0 -40.281258 -7.203125q-18.390625 -7.203125 -31.859375 -20.125q-13.46875 -12.9375 -20.796875 -30.671875q-7.328125 -17.734375 -7.328125 -39.0625q0 -21.078125 7.59375 -38.796875q7.59375 -17.734375 21.1875 -30.796875q13.609375 -13.078125 32.265625 -20.265625q18.671883 -7.203125 40.812508 -7.203125q13.328125 0 25.984375 3.328125q12.671875 3.328125 23.875 9.734375q11.203125 6.390625 20.0 16.0l-31.734375 36.796875q-4.53125 -5.0625 -10.140625 -9.0625q-5.59375 -4.0 -12.65625 -6.265625q-7.0625 -2.265625 -15.59375 -2.265625q-9.875 0 -18.546875 3.328125q-8.65625 3.328125 -15.062508 9.734375q-6.390625 6.390625 -10.0 15.46875q-3.59375 9.0625 -3.59375 20.796875q0 11.203125 3.59375 20.140625q3.609375 8.921875 10.40625 15.1875q6.7968826 6.265625 16.265633 9.734375q9.46875 3.46875 21.203125 3.46875q8.265625 0 15.59375 -2.390625q7.34375 -2.40625 13.46875 -6.40625q6.140625 -4.0 10.9375 -8.8125l25.0625 39.734375q-6.671875 7.46875 -18.0 13.34375q-11.328125 5.859375 -25.0625 9.203125q-13.734375 3.328125 -27.59375 3.328125zm97.84784 -2.671875l0 -186.65625l46.14061 0l68.0 110.65625l-36.0 -0.265625l68.796875 -110.390625l44.53125 0l0 186.65625l-50.9375 0l0 -49.859375q0 -24.0 1.203125 -43.203125q1.203125 -19.203125 4.140625 -38.125l5.859375 15.71875l-47.734375 73.875l-17.59375 0l-46.671875 -73.875l5.875 -15.71875q2.921875 17.859375 4.125 36.65625q1.203125 18.796875 1.203125 44.671875l0 49.859375l-50.937485 0z" fill-rule="nonzero"/><path fill="#000000" fill-opacity="0.0" d="m56.09324 289.6636l285.44882 0l0 27.307098l-285.44882 0z" fill-rule="evenodd"/><path fill="#000000" fill-opacity="0.0" d="m113.276085 284.97055l285.44882 0l0 172.75592l-285.44882 0z" fill-rule="evenodd"/><path fill="#3c78d8" d="m141.66847 313.3468l27.328125 0q11.078125 0 17.03125 1.734375q5.96875 1.734375 8.96875 5.03125q3.0 3.28125 4.0625 7.953125q1.0625 4.671875 1.0625 14.46875l0 9.09375q0 9.984375 -2.0625 14.5625q-2.0625 4.578125 -7.578125 7.03125q-5.5 2.4375 -14.40625 2.4375l-7.28125 0l0 42.03125l-27.125 0l0 -104.34375zm27.125 17.84375l0 26.5625q1.15625 0.0625 2.0 0.0625q3.734375 0 5.1875 -1.828125q1.453125 -1.84375 1.453125 -7.65625l0 -8.5625q0 -5.359375 -1.6875 -6.96875q-1.671875 -1.609375 -6.953125 -1.609375zm141.22655 -17.84375l-12.0625 104.34375l-33.90625 0q-4.640625 -24.046875 -8.17186 -54.65625q-1.625 13.078125 -7.546875 54.65625l-33.703125 0l-12.125 -104.34375l26.359375 0l2.78125 36.40625l2.828125 35.125q1.484375 -27.265625 7.484375 -71.53125l28.218735 0q0.578125 4.5625 2.96875 34.40625l2.96875 39.640625q2.25 -37.828125 7.53125 -74.046875l26.375 0zm50.96875 0l15.5469055 104.34375l-27.78128 0l-1.359375 -18.75l-9.734375 0l-1.609375 18.75l-28.109375 0l13.796875 -104.34375l39.25 0zm-14.359375 67.09375q-2.0625 -17.734375 -4.125 -43.765625q-4.125 29.90625 -5.15625 43.765625l9.28125 0z" fill-rule="nonzero"/><path fill="#434343" d="m56.09449 468.70078l0 -122.236206l31.663727 40.744995l0 49.827484l38.72191 0l24.606483 31.663727z" fill-rule="evenodd"/><path stroke="#000000" stroke-width="1.0" stroke-linejoin="round" stroke-linecap="butt" d="m56.09449 468.70078l0 -122.236206l31.663727 40.744995l0 49.827484l38.72191 0l24.606483 31.663727z" fill-rule="evenodd"/><path fill="#434343" d="m459.0866 468.70078l0 -122.236206l-31.663727 40.744995l0 49.827484l-38.721893 0l-24.606506 31.663727z" fill-rule="evenodd"/><path stroke="#000000" stroke-width="1.0" stroke-linejoin="round" stroke-linecap="butt" d="m459.0866 468.70078l0 -122.236206l-31.663727 40.744995l0 49.827484l-38.721893 0l-24.606506 31.663727z" fill-rule="evenodd"/></g></svg>