<?xml version="1.0" standalone="no"?>
<!DOCTYPE svg PUBLIC "-//W3C//DTD SVG 20010904//EN"
 "http://www.w3.org/TR/2001/REC-SVG-20010904/DTD/svg10.dtd">
<svg version="1.0" xmlns="http://www.w3.org/2000/svg"
 width="700.000000pt" height="700.000000pt" viewBox="0 0 700.000000 700.000000"
 preserveAspectRatio="xMidYMid meet">
<metadata>
Created by potrace 1.14, written by Peter Selinger 2001-2017
</metadata>
<g transform="translate(0.000000,700.000000) scale(0.100000,-0.100000)"
fill="#000000" stroke="none">
<path d="M1979 5886 c-2 -2 -29 -7 -59 -10 -74 -9 -203 -40 -286 -69 -376
-132 -666 -417 -797 -782 -49 -138 -69 -257 -72 -431 -3 -177 10 -284 51 -429
124 -440 482 -774 948 -884 74 -18 109 -24 206 -36 50 -6 263 -7 291 -1 13 3
51 8 84 11 247 22 594 170 721 307 l31 33 -119 185 c-65 102 -122 192 -126
200 -16 34 -94 150 -102 150 -4 0 -14 -7 -21 -16 -21 -25 -119 -98 -170 -127
-182 -100 -405 -119 -619 -51 -188 59 -334 197 -395 373 -31 88 -39 145 -38
263 3 389 253 650 629 657 183 4 343 -55 470 -173 l70 -64 29 36 c17 20 50 59
75 87 25 28 56 65 70 81 37 43 154 178 160 184 3 3 27 30 53 61 l48 57 -68 62
c-152 139 -377 253 -588 299 -27 6 -63 14 -80 17 -34 7 -389 16 -396 10z"/>
<path d="M3470 4551 l0 -1277 348 1 347 0 -1 500 c-1 482 -10 839 -22 860 -3
6 -1 6 4 2 8 -7 121 -185 326 -512 63 -102 168 -266 176 -275 2 -3 57 -6 123
-6 l119 -1 34 51 c68 104 151 232 161 249 15 26 231 360 283 437 l43 65 -6
-85 c-3 -47 -8 -355 -11 -685 l-6 -600 348 0 349 0 1 1276 0 1276 -285 1
c-157 0 -295 -1 -307 -3 -19 -4 -72 -86 -574 -893 -118 -190 -133 -212 -140
-207 -6 4 -97 148 -171 273 -9 15 -94 153 -189 307 -95 154 -178 289 -184 300
-6 11 -39 65 -74 121 l-63 101 -315 0 -314 0 0 -1276z"/>
<path d="M1939 2701 c0 -9 -2 -330 -2 -714 l-2 -697 187 0 187 0 0 281 c0 155
2 284 5 287 3 2 50 6 103 8 205 7 288 63 310 209 11 71 10 351 -2 415 -16 94
-66 158 -149 189 -84 31 -92 32 -373 36 -238 2 -263 1 -264 -14z m446 -243
c15 -7 28 -24 33 -42 7 -25 8 -135 3 -243 -2 -35 -36 -63 -76 -63 l-35 0 -1
55 c0 30 0 84 0 120 0 194 -1 185 26 185 13 0 36 -5 50 -12z"/>
<path d="M2775 2660 c3 -30 8 -66 10 -80 2 -14 6 -52 9 -85 3 -33 8 -71 10
-85 3 -14 7 -56 11 -95 3 -38 8 -77 10 -85 2 -8 6 -44 10 -80 3 -36 7 -75 9
-85 2 -11 7 -54 11 -95 4 -41 8 -82 10 -90 1 -8 6 -46 11 -85 4 -38 8 -72 9
-75 1 -3 5 -41 9 -85 5 -44 9 -87 11 -95 1 -8 8 -68 15 -132 l13 -118 228 0
c125 0 230 3 232 8 3 4 8 32 12 62 3 30 8 62 10 70 2 8 6 38 10 65 3 28 7 61
10 75 2 14 6 41 9 60 2 19 10 71 16 115 12 90 16 116 25 198 10 79 16 70 30
-44 3 -30 8 -66 10 -80 3 -14 7 -43 10 -64 11 -90 17 -129 44 -290 11 -66 22
-131 24 -145 l4 -25 228 -3 c126 -1 232 1 236 5 4 5 10 40 13 78 4 39 8 81 10
95 3 14 7 52 11 85 3 33 10 94 15 135 11 93 17 148 25 225 4 33 8 71 10 85 5
32 13 101 20 165 3 28 7 68 10 90 9 67 14 107 20 175 3 36 8 76 11 90 4 22 15
135 18 180 1 13 -25 15 -176 16 -201 0 -183 9 -193 -91 -3 -33 -8 -67 -10 -75
-2 -8 -6 -42 -10 -75 -7 -72 -15 -139 -20 -180 -2 -16 -6 -61 -10 -100 -3 -38
-8 -79 -10 -90 -2 -11 -7 -67 -11 -125 -3 -57 -8 -111 -9 -120 -2 -8 -4 -37
-4 -64 -1 -72 -10 -52 -16 40 -3 43 -8 104 -10 134 -6 83 -14 187 -20 270 -5
73 -9 119 -20 245 -12 139 -16 181 -21 206 l-5 26 -189 -1 -190 0 -4 -31 c-3
-16 -7 -46 -10 -65 -3 -19 -8 -55 -11 -80 -3 -25 -7 -61 -10 -80 -5 -41 -12
-94 -20 -170 -4 -30 -8 -66 -10 -80 -2 -14 -6 -60 -10 -102 -3 -42 -8 -92 -10
-110 -2 -18 -7 -76 -10 -128 -7 -100 -14 -130 -16 -64 -1 21 -2 50 -4 64 -1
14 -5 70 -9 125 -4 55 -9 111 -11 125 -2 14 -6 68 -10 120 -4 52 -8 111 -10
130 -2 19 -6 83 -10 142 -4 59 -8 115 -10 125 -2 10 -4 32 -4 49 l-1 30 -181
0 -180 0 6 -56z"/>
<path d="M4391 2651 c-11 -69 -18 -116 -26 -191 -4 -39 -12 -99 -30 -228 -3
-18 -8 -54 -11 -80 -3 -26 -7 -59 -9 -73 -3 -15 -7 -47 -10 -70 -9 -77 -16
-123 -20 -149 -3 -14 -7 -51 -10 -83 -4 -32 -8 -66 -10 -76 -2 -10 -6 -42 -10
-72 -3 -30 -8 -65 -10 -79 -6 -40 -14 -102 -20 -150 -3 -25 -8 -60 -11 -77
l-6 -33 194 0 c149 0 195 3 195 13 1 29 15 207 17 223 2 15 14 18 69 20 62 1
67 0 68 -20 1 -34 9 -138 13 -171 2 -16 4 -38 5 -47 1 -17 17 -18 191 -18
l190 0 -4 23 c-3 12 -10 58 -17 102 -6 44 -13 89 -15 100 -2 11 -6 40 -9 64
-3 24 -12 84 -20 135 -7 50 -16 109 -19 131 -4 22 -8 51 -11 65 -2 14 -6 41
-9 60 -21 151 -47 328 -51 340 -2 8 -7 40 -10 70 -3 30 -8 62 -10 70 -2 8 -7
38 -10 65 -4 28 -12 84 -18 125 l-12 75 -267 1 -267 0 -10 -65z m303 -381 c4
-58 8 -118 10 -135 4 -31 16 -149 22 -220 2 -22 6 -58 9 -80 l5 -40 -63 3 -64
4 3 46 c2 26 8 88 14 137 6 50 13 110 16 135 2 25 7 54 9 65 2 11 7 47 11 79
3 33 8 67 9 75 2 9 4 22 4 30 2 40 9 -6 15 -99z"/>
<path d="M760 1431 c0 -665 3 -841 13 -842 54 -5 1290 -3 1293 2 3 5 -302 407
-331 437 -2 2 -121 3 -264 3 -199 0 -261 2 -262 12 -1 6 -2 159 -2 339 l-2
328 -209 270 c-115 149 -215 275 -223 281 -11 10 -13 -133 -13 -830z"/>
<path d="M6149 2109 c-68 -89 -129 -166 -134 -173 -6 -6 -26 -31 -45 -56 -19
-25 -37 -47 -40 -50 -3 -3 -25 -32 -50 -65 l-44 -59 0 -336 -1 -335 -258 -2
c-157 -1 -263 -6 -271 -12 -17 -15 -329 -417 -330 -427 -1 -5 293 -9 651 -9
573 0 653 2 654 15 4 64 3 1654 -2 1661 -3 5 -61 -63 -130 -152z"/>
</g>
</svg>
